# xmcd
#
# Track frame offsets:
#	150
#	13768
#	31772
#	45707
#	63053
#	74625
#	94986
#	110928
#	130535
#	152188
#	168280
#	190224
#	207681
#	220376
#	234220
#	249434
#	264438
#	285900
#	303356
#	323872
#
# Disc length: 4642 seconds
# Revision: 1
# Processed by: cddbd v1.5.2PL0 Copyright (c) Steve Scherf et al.
# Submitted via: dBpowerAMP V12.0
#
DISCID=1e122014
DTITLE=Willie Nelson - The Essential Willie Nelson [CD 2)
DYEAR=2003
DGENRE=Country
TTITLE0=Heartbreak Hotel (w/ Leon Russell)
TTITLE1=Help Me Make It Through the Night
TTITLE2=My Heroes Have Always Been Cowboys
TTITLE3=Faded Love (w/ Ray Price)
TTITLE4=On the Road Again
TTITLE5=Angel Flying Too Close to the Ground
TTITLE6=Always on My Mind
TTITLE7=Last Thing I Needed First Thing This Morning
TTITLE8=Pancho and Lefty (w/ Merle Haggard)
TTITLE9=To All the Girls I've Loved Before (w/ Julio Iglesias)
TTITLE10=City of New Orleans
TTITLE11=Seven Spanish Angels (w/ Ray Charles)
TTITLE12=Forgiving You Was Easy
TTITLE13=Highwayman (w/ Johnny Cash, Waylon Jennings and Kris Kristofferson)
TTITLE14=Living in the Promiseland
TTITLE15=Nothing I Can Do About It Now
TTITLE16=Graceland
TTITLE17=Everywhere I Go (w/ Emmylou Harris)
TTITLE18=Mendocino County Line (w/ Lee Ann Womack)
TTITLE19=One Time Too Many (w/ Steven Tyler and Aerosmith)
EXTD=
EXTT0=
EXTT1=
EXTT2=
EXTT3=
EXTT4=
EXTT5=
EXTT6=
EXTT7=
EXTT8=
EXTT9=
EXTT10=
EXTT11=
EXTT12=
EXTT13=
EXTT14=
EXTT15=
EXTT16=
EXTT17=
EXTT18=
EXTT19=
PLAYORDER=
